# File created by Blade
# Date/Time:  Tue Jan 27 19:54:32 2015
#---------------------------------------------------------
:version 1.10
:name HOM
:units
  mass 1.0
  length 1.000000
  angle deg
:documentation
     Acclaim Skeleton File
:root
   axis xyz
   order TX TY TZ RX RY RZ
   position 0.000000 0.000000 0.000000
   orientation 0 0 0
:bonedata
   begin
      id 1
      name Spine_dum
      direction 0.000000 1.000000 0.000000
      length 6.116652
      axis 0.0 0.0 0.0 xyz
   end
   begin
      id 2
      name LeftUpLeg_dum
      direction 1.000000 0.000000 0.000000
      length 4.711765
      axis 0.0 0.0 0.0 xyz
   end
   begin
      id 3
      name RightUpLeg_dum
      direction -1.000000 0.000000 0.000000
      length 4.711765
      axis 0.0 0.0 0.0 xyz
   end
   begin
      id 4
      name Spine
      direction 0.000000 1.000000 0.000000
      length 0.000000
      axis 0.0 0.0 0.0 xyz
      dof rx ry rz
   end
   begin
      id 5
      name Spine_dum1
      direction 0.000000 1.000000 0.000000
      length 15.225563
      axis 0.0 0.0 0.0 xyz
   end
   begin
      id 6
      name Spine_dum2
      direction 0.000000 1.000000 0.000000
      length 8.977654
      axis 0.0 0.0 0.0 xyz
   end
   begin
      id 7
      name Spine_dum3
      direction 0.000000 1.000000 0.000000
      length 8.977654
      axis 0.0 0.0 0.0 xyz
   end
   begin
      id 8
      name Head
      direction 0.000000 1.000000 0.000000
      length 4.527550
      axis 0.0 0.0 0.0 xyz
      dof rx ry rz
   end
   begin
      id 9
      name LeftShoulder
      direction 1.000000 0.000000 0.000000
      length 7.110130
      axis 0.0 0.0 -90.0 xyz
      dof rx ry rz
   end
   begin
      id 10
      name LeftArm
      direction 1.000000 0.000000 0.000000
      length 10.398341
      axis 0.0 0.0 -90.0 xyz
      dof rx ry rz
   end
   begin
      id 11
      name LeftForeArm
      direction 1.000000 0.000000 0.000000
      length 8.888997
      axis 0.0 0.0 -90.0 xyz
      dof ry rz rx
   end
   begin
      id 12
      name LeftHand
      direction 0.000000 0.000000 0.000000
      length 0.000000
      axis 0.0 0.0 -90.0 xyz
      dof rx ry rz
   end
   begin
      id 13
      name LeftHand_dum1
      direction 0.000000 0.000000 0.000000
      length 0.000000
      axis 0.0 0.0 -90.0 xyz
   end
   begin
      id 14
      name LeftHand_dum2
      direction 1.000000 0.000000 0.000000
      length 3.937000
      axis 0.0 0.0 -90.0 xyz
   end
   begin
      id 15
      name LeftHandThumb1
      direction 0.000000 0.000000 1.000000
      length 3.937000
      axis 0.0 0.0 -90.0 xyz
      dof rx rz ry
   end
   begin
      id 16
      name RightShoulder
      direction -1.000000 0.000000 0.000000
      length 7.110130
      axis 0.0 0.0 90.0 xyz
      dof rx ry rz
   end
   begin
      id 17
      name RightArm
      direction -1.000000 0.000000 0.000000
      length 10.398341
      axis 0.0 0.0 90.0 xyz
      dof rx ry rz
   end
   begin
      id 18
      name RightForeArm
      direction -1.000000 0.000000 0.000000
      length 8.888997
      axis 0.0 0.0 90.0 xyz
      dof ry rz rx
   end
   begin
      id 19
      name RightHand
      direction 0.000000 0.000000 0.000000
      length 0.000000
      axis 0.0 0.0 90.0 xyz
      dof rx ry rz
   end
   begin
      id 20
      name RightHand_dum1
      direction 0.000000 0.000000 0.000000
      length 0.000000
      axis 0.0 0.0 90.0 xyz
   end
   begin
      id 21
      name RightHand_dum2
      direction -1.000000 0.000000 0.000000
      length 3.937000
      axis 0.0 0.0 90.0 xyz
   end
   begin
      id 22
      name RightHandThumb1
      direction 0.000000 0.000000 1.000000
      length 3.937000
      axis 0.0 0.0 90.0 xyz
      dof rx rz ry
   end
   begin
      id 23
      name LeftUpLeg
      direction 0.000000 -1.000000 0.000000
      length 15.510451
      axis 0.0 0.0 0.0 xyz
      dof rx ry rz
   end
   begin
      id 24
      name LeftLeg
      direction 0.000000 -1.000000 0.000000
      length 14.858061
      axis 0.0 0.0 0.0 xyz
      dof rx ry rz
   end
   begin
      id 25
      name LeftFoot
      direction 0.000000 -0.258819 0.965926
      length 5.128852
      axis 15.0 0.0 0.0 xyz
      dof rx ry rz
   end
   begin
      id 26
      name LeftToeBase
      direction 0.000000 0.000000 1.000000
      length 2.952750
      axis 0.0 0.0 0.0 xyz
      dof rx ry rz
   end
   begin
      id 27
      name RightUpLeg
      direction 0.000000 -1.000000 0.000000
      length 15.510451
      axis 0.0 0.0 0.0 xyz
      dof rx ry rz
   end
   begin
      id 28
      name RightLeg
      direction 0.000000 -1.000000 0.000000
      length 14.858061
      axis 0.0 0.0 0.0 xyz
      dof rx ry rz
   end
   begin
      id 29
      name RightFoot
      direction 0.000000 -0.258819 0.965926
      length 5.128852
      axis 15.0 0.0 0.0 xyz
      dof rx ry rz
   end
   begin
      id 30
      name RightToeBase
      direction 0.000000 0.000000 1.000000
      length 2.952750
      axis 0.0 0.0 0.0 xyz
      dof rx ry rz
   end
:hierarchy
   begin
      root Spine_dum LeftUpLeg_dum RightUpLeg_dum
      Spine_dum Spine
      LeftUpLeg_dum LeftUpLeg
      RightUpLeg_dum RightUpLeg
      Spine Spine_dum1 Spine_dum2 Spine_dum3
      Spine_dum1 Head
      Spine_dum2 LeftShoulder
      Spine_dum3 RightShoulder
      LeftShoulder LeftArm
      LeftArm LeftForeArm
      LeftForeArm LeftHand
      LeftHand LeftHand_dum1 LeftHand_dum2
      LeftHand_dum1 LeftHandThumb1
      RightShoulder RightArm
      RightArm RightForeArm
      RightForeArm RightHand
      RightHand RightHand_dum1 RightHand_dum2
      RightHand_dum1 RightHandThumb1
      LeftUpLeg LeftLeg
      LeftLeg LeftFoot
      LeftFoot LeftToeBase
      RightUpLeg RightLeg
      RightLeg RightFoot
      RightFoot RightToeBase
   end

# File created by Blade
# Date/Time:  Tue Jan 27 19:54:25 2015
# Frame Rate: 120.000 fps
#------------------------------------------------------
:FULLY-SPECIFIED
:DEGREES
656
root 5.907013 33.038240 0.416809 -19.780656 16.629670 -12.160101
Spine 17.038474 -1.250448 10.230464
Head 5.882532 -11.592083 8.184087
LeftShoulder -12.784359 -2.879839 29.889547
LeftArm -7.842617 33.681012 -94.372173
LeftForeArm 3.234668 -0.000000 85.102152
LeftHand 23.786881 -0.000000 48.258442
LeftHandThumb1 -26.253704 0.000000 33.147579
RightShoulder -23.141041 -20.383865 -17.128417
RightArm 1.858028 -22.107288 91.788702
RightForeArm -16.809710 -0.000000 22.021736
RightHand 16.234453 -0.000000 7.947191
RightHandThumb1 -24.326973 -0.000000 -32.862282
LeftUpLeg 17.705199 4.586085 7.594801
LeftLeg 7.953718 -0.000000 -0.000000
LeftFoot -18.073480 1.008619 -17.622814
LeftToeBase 22.823956 -0.000000 -0.000000
RightUpLeg -74.978220 15.374067 29.044780
RightLeg 104.388455 -0.000000 -0.000000
RightFoot 16.854487 -23.979570 16.283713
RightToeBase 11.105265 -0.000000 -0.000000
657
root 5.907618 33.043036 0.432390 -19.775337 16.595359 -12.238173
Spine 16.982438 -1.289908 10.385445
Head 5.898010 -11.509532 7.963861
LeftShoulder -12.832311 -2.673589 29.759675
LeftArm -7.525944 34.015121 -94.018388
LeftForeArm 3.180959 -0.000000 85.142455
LeftHand 23.774689 -0.000000 48.214671
LeftHandThumb1 -26.253704 0.000000 33.147579
RightShoulder -23.112137 -20.377586 -17.162130
RightArm 1.949886 -22.156028 91.732832
RightForeArm -16.714555 -0.000000 21.969527
RightHand 16.246202 -0.000000 7.881220
RightHandThumb1 -24.326973 -0.000000 -32.862282
LeftUpLeg 17.784907 4.573461 7.677382
LeftLeg 7.806407 -0.000000 -0.000000
LeftFoot -18.045918 1.048590 -17.558298
LeftToeBase 22.671812 -0.000000 -0.000000
RightUpLeg -75.341694 15.515933 29.169494
RightLeg 105.799892 -0.000000 -0.000000
RightFoot 16.883923 -23.981243 16.375026
RightToeBase 10.274045 -0.000000 -0.000000
658
root 5.908380 33.047175 0.445822 -19.752576 16.543547 -12.277888
Spine 16.934320 -1.295434 10.505560
Head 5.906141 -11.418840 7.747317
LeftShoulder -12.856201 -2.584994 29.688708
LeftArm -7.377447 34.299636 -93.766436
LeftForeArm 3.145266 -0.000000 85.186347
LeftHand 23.762679 -0.000000 47.942941
LeftHandThumb1 -26.253704 0.000000 33.147579
RightShoulder -23.079276 -20.351097 -17.200958
RightArm 2.036410 -21.956156 91.739176
RightForeArm -17.049080 -0.000000 21.881171
RightHand 16.339535 -0.000000 8.092858
RightHandThumb1 -24.326973 -0.000000 -32.862282
LeftUpLeg 17.879353 4.563729 7.716925
LeftLeg 7.618690 -0.000000 -0.000000
LeftFoot -17.995797 1.135010 -17.483489
LeftToeBase 22.578138 -0.000000 -0.000000
RightUpLeg -75.669559 15.653621 29.281925
RightLeg 107.125435 -0.000000 -0.000000
RightFoot 16.859885 -23.848512 16.488629
RightToeBase 10.459775 -0.000000 -0.000000
659
root 5.912041 33.051644 0.458980 -19.722517 16.490396 -12.311199
Spine 16.871231 -1.294096 10.620805
Head 5.925787 -11.352715 7.557488
LeftShoulder -12.853584 -2.512727 29.642897
LeftArm -7.283685 34.517032 -93.586263
LeftForeArm 3.155101 -0.000000 85.207404
LeftHand 23.802881 -0.000000 47.576703
LeftHandThumb1 -26.253704 0.000000 33.147579
RightShoulder -23.067056 -20.352676 -17.197960
RightArm 2.149848 -22.164808 91.612220
RightForeArm -16.767219 -0.000000 21.935446
RightHand 16.282139 -0.000000 7.904104
RightHandThumb1 -24.326973 -0.000000 -32.862282
LeftUpLeg 17.980325 4.513868 7.722205
LeftLeg 7.405981 -0.000000 -0.000000
LeftFoot -17.932840 1.319815 -17.334050
LeftToeBase 22.316490 -0.000000 -0.000000
RightUpLeg -75.974545 15.772160 29.404656
RightLeg 108.400695 -0.000000 -0.000000
RightFoot 16.802818 -23.662113 16.506595
RightToeBase 10.282474 -0.000000 -0.000000
